Coordinates
version=1
nRows=25
nColumns=33
inDegrees=yes

Units are S.I. units (second, meters, Newtons, ...)
Angles are in degrees.

endheader
time	ground_thorax_rot_x	ground_thorax_rot_y	ground_thorax_rot_z	ground_thorax_tx	ground_thorax_ty	ground_thorax_tz	clav_prot_r	clav_elev_r	scapula_abduction_r	scapula_elevation_r	scapula_upward_rot_r	scapula_winging_r	shoulder_elv_r	plane_of_elev_r	axial_rot_r	elbow_flexion_r	pro_sup_r	wrist_flex_r	wrist_dev_r	clav_prot_l	clav_elev_l	scapula_abduction_l	scapula_elevation_l	scapula_upward_rot_l	scapula_winging_l	shoulder_elv_l	plane_of_elev_l	axial_rot_l	elbow_flexion_l	pro_sup_l	wrist_flex_l	wrist_dev_l	
8.7500	-29.147970	-34.013500	40.003963	0.637282	835.325701	-44.458023	26.577581	-45.000000	40.634019	-45.000000	-45.000000	2418.212935	-645.202677	21.569247	-154.006987	1798.212370	166.262001	15.281649	15.911414	0.369517	31.894597	-32.326329	-45.000000	-45.000000	4404.864554	-4241.608569	28.802691	62.415249	1790.570217	-314.185032	13.729694	-17.649016	
8.7600	-28.791529	-34.258148	40.784957	4.532354	833.459006	-44.258583	26.561740	-45.000000	40.594428	-45.000000	-45.000000	2418.494757	-645.387266	21.512207	-154.283099	1798.207355	166.846338	15.038607	15.940754	0.422435	31.794902	-32.207851	-45.000000	-45.000000	4404.640474	-4241.711659	28.711543	62.261710	1790.552963	-314.129008	13.703301	-17.370470	
8.7700	-28.427947	-34.473295	41.567868	8.439644	831.514265	-44.057033	26.534634	-45.000000	40.534051	-45.000000	-45.000000	2418.770646	-645.574334	21.454353	-154.522062	1798.202790	167.533914	14.819182	15.948882	0.499951	31.707973	-32.090642	-45.000000	-45.000000	4404.429987	-4241.842356	28.632316	62.047117	1790.529617	-314.082411	13.669377	-17.097667	
8.7800	-28.044063	-34.668337	42.371078	12.354389	829.490465	-43.853331	26.520352	-45.000000	40.464906	-45.000000	-45.000000	2419.015992	-645.769870	21.404076	-154.700846	1798.198899	168.321956	14.629541	15.935800	0.569217	31.627425	-31.959202	-45.000000	-45.000000	4404.232850	-4241.992000	28.567349	61.780587	1790.497297	-314.043801	13.628946	-16.834166	
8.7900	-27.614367	-34.862472	43.222997	16.271664	827.387016	-43.647073	26.525909	-45.000000	40.406036	-45.000000	-45.000000	2419.219363	-645.972274	21.359565	-154.791245	1798.199333	169.203331	14.467821	15.903887	0.609888	31.551265	-31.789243	-45.000000	-45.000000	4404.041820	-4242.155395	28.509902	61.455981	1790.457954	-314.010768	13.580826	-16.580213	
8.8000	-27.129097	-35.061507	44.132083	20.185791	825.204423	-43.437726	26.557986	-45.000000	40.366709	-45.000000	-45.000000	2419.381315	-646.180036	21.313239	-154.791229	1798.205962	170.160686	14.329624	15.853479	0.606247	31.473657	-31.575191	-45.000000	-45.000000	4403.850017	-4242.327888	28.448042	61.081583	1790.415729	-313.981470	13.528119	-16.338505	
8.8100	-26.579233	-35.264552	45.102347	24.090508	822.944387	-43.224823	26.616566	-45.000000	40.355550	-45.000000	-45.000000	2419.505385	-646.387041	21.255817	-154.702311	1798.220877	171.169000	14.206464	15.782404	0.556494	31.390197	-31.311082	-45.000000	-45.000000	4403.642017	-4242.503864	28.372363	60.653629	1790.368813	-313.952928	13.470897	-16.103504	
8.8200	-25.972056	-35.462698	46.121100	27.978656	820.609908	-43.008120	26.702398	-45.000000	40.367770	-45.000000	-45.000000	2419.593642	-646.593428	21.185659	-154.531434	1798.244559	172.199598	14.095883	15.689961	0.464577	31.303663	-31.002970	-44.999999	-45.000000	4403.415671	-4242.681551	28.282447	60.178004	1790.318412	-313.925684	13.408512	-15.873161	
8.8300	-25.312372	-35.652556	47.179023	31.842475	818.205030	-42.787640	26.812960	-45.000000	40.401764	-45.000000	-45.000000	2419.645831	-646.798252	21.106627	-154.272650	1798.281470	173.226047	13.992899	15.580892	0.336149	31.214324	-30.654180	-44.999999	-45.000000	4403.175682	-4242.862732	28.183561	59.657997	1790.264983	-313.902389	13.343161	-15.649616	
8.8400	-24.627869	-35.819656	48.238678	35.673018	815.735082	-42.563759	26.936142	-45.000000	40.437353	-45.000000	-45.000000	2419.677253	-647.001878	21.021839	-153.943017	1798.335875	174.220355	13.894422	15.458876	0.191838	31.124753	-30.286844	-44.999998	-45.000000	4402.933160	-4243.052103	28.083561	59.110719	1790.211931	-313.887619	13.279652	-15.438371	
8.8500	-23.942836	-35.948535	49.266717	39.460040	813.206923	-42.337275	27.060803	-45.000000	40.460342	-45.000000	-45.000000	2419.701969	-647.201109	20.930887	-153.564977	1798.410398	175.153161	13.793908	15.324980	0.048148	31.030449	-29.919806	-44.999996	-45.000000	4402.686657	-4243.248202	27.984665	58.555888	1790.158156	-313.884836	13.221523	-15.239732	
8.8600	-23.273796	-36.034497	50.241291	43.192162	810.629189	-42.109507	27.179834	-45.000000	40.461590	-45.000000	-45.000000	2419.728363	-647.396457	20.834781	-153.149588	1798.507263	175.998297	13.687201	15.181911	-0.086345	30.932328	-29.559915	-44.999992	-45.000000	4402.434326	-4243.447067	27.887144	58.012908	1790.105281	-313.897748	13.168099	-15.053091	
8.8700	-22.626371	-36.076599	51.155526	46.857427	808.012507	-41.882376	27.290310	-45.000000	40.442708	-45.000000	-45.000000	2419.760005	-647.583151	20.729546	-152.697204	1798.622957	176.732647	13.570926	15.029599	-0.209722	30.827394	-29.210458	-44.999986	-45.000000	4402.169906	-4243.643701	27.786852	57.488463	1790.051113	-313.927807	13.118801	-14.875706	
8.8800	-22.003123	-36.079697	52.007678	50.443668	805.369760	-41.658518	27.391325	-45.000000	40.404920	-45.000000	-45.000000	2419.797500	-647.759241	20.615013	-152.199843	1798.757224	177.338011	13.442617	14.868339	-0.322363	30.717831	-28.869863	-44.999976	-45.000000	4401.891252	-4243.835917	27.680993	56.985255	1789.996926	-313.976289	13.071451	-14.705811	
8.8900	-21.403196	-36.049126	52.803191	53.939248	802.716156	-41.441337	27.488592	-45.000000	40.352426	-45.000000	-45.000000	2419.836138	-647.921697	20.490362	-151.645518	1798.904418	177.801942	13.302645	14.699439	-0.427164	30.605073	-28.537175	-44.999956	-45.000000	4401.600849	-4244.021136	27.571194	56.502275	1789.939636	-314.043028	13.026508	-14.542505	
8.9000	-20.820974	-35.994452	53.553445	57.333663	800.068956	-41.235003	27.584264	-45.000000	40.292341	-45.000000	-45.000000	2419.869011	-648.069795	20.355908	-151.015320	1799.062623	178.120479	13.151499	14.524723	-0.529528	30.490115	-28.205894	-44.999922	-45.000000	4401.301895	-4244.199578	27.457157	56.034126	1789.880572	-314.127833	12.983661	-14.386449	
8.9100	-20.252842	-35.919397	54.268820	60.617904	797.447183	-41.044374	27.680374	-45.000000	40.229338	-45.000000	-45.000000	2419.890492	-648.197873	20.209148	-150.298982	1799.223118	178.295742	12.993048	14.341343	-0.633128	30.372451	-27.876661	-44.999859	-45.000000	4400.993506	-4244.369414	27.337567	55.569341	1789.816814	-314.228480	12.941782	-14.234826	
8.9200	-19.704223	-35.828117	54.946415	63.784115	794.871079	-40.874796	27.778823	-45.000000	40.163041	-45.000000	-45.000000	2419.900164	-648.308601	20.055667	-149.490098	1799.389628	178.334128	12.829115	14.154443	-0.736863	30.257841	-27.549253	-44.999748	-45.000000	4400.687764	-4244.532821	27.220301	55.116741	1789.752572	-314.345690	12.903253	-14.092365	
8.9300	-19.181446	-35.720468	55.581848	66.825348	792.361427	-40.731756	27.879402	-45.000000	40.094198	-45.000000	-45.000000	2419.898803	-648.402138	19.896792	-148.597952	1799.558252	178.245035	12.663476	13.967824	-0.837354	30.146595	-27.229447	-44.999549	-45.000000	4400.391873	-4244.690896	27.110532	54.680477	1789.686726	-314.478458	12.870808	-13.961429	
8.9400	-18.688365	-35.599043	56.171906	69.734848	789.938601	-40.620355	27.980845	-45.000000	40.026348	-45.000000	-45.000000	2419.888567	-648.481157	19.735880	-147.628357	1799.731383	178.039046	12.497556	13.787534	-0.932847	30.041482	-26.917561	-44.999192	-45.000000	4400.113406	-4244.844599	27.012121	54.271005	1789.621860	-314.626814	12.846540	-13.845665	
8.9500	-18.225559	-35.462368	56.717802	72.505978	787.621549	-40.544697	28.077918	-45.000000	39.961227	-45.000000	-45.000000	2419.872099	-648.540930	19.570539	-146.596850	1799.902080	177.729091	12.335464	13.609736	-1.023155	29.937343	-26.618020	-44.998553	-45.000000	4399.843864	-4244.991990	26.919291	53.882285	1789.555264	-314.787691	12.826661	-13.740283	
8.9600	-17.797603	-35.312821	57.216375	75.131665	785.426954	-40.507310	28.171011	-45.000000	39.897479	-45.000000	-45.000000	2419.853591	-648.583767	19.407164	-145.512367	1800.072259	177.331533	12.180273	13.436989	-1.107810	29.835728	-26.330144	-44.997406	-45.000000	4399.589236	-4245.131811	26.834512	53.521101	1789.492313	-314.960598	12.809083	-13.647422	
8.9700	-17.405254	-35.148306	57.669452	77.605129	783.368255	-40.508756	28.254375	-45.000000	39.835775	-45.000000	-45.000000	2419.835027	-648.606390	19.242918	-144.398240	1800.232379	176.866801	12.037007	13.264251	-1.187464	29.726357	-26.059007	-44.995361	-45.000000	4399.340223	-4245.263068	26.749743	53.177381	1789.431535	-315.141686	12.789026	-13.563175	
8.9800	-17.053604	-34.970334	58.076750	79.919779	781.455215	-40.547511	28.329486	-45.000000	39.767454	-45.000000	-45.000000	2419.818978	-648.610224	19.083508	-143.272224	1800.384285	176.355573	11.907510	13.088600	-1.262592	29.607829	-25.802179	-44.991667	-45.000000	4399.097477	-4245.378822	26.666712	52.847741	1789.379710	-315.329346	12.759350	-13.485294	
8.9900	-16.739231	-34.781621	58.437769	82.069913	779.693507	-40.620133	28.389702	-45.000000	39.708513	-45.000000	-45.000000	2419.807373	-648.599948	18.927406	-142.160017	1800.522894	175.816748	11.790759	12.917198	-1.332281	29.478611	-25.569090	-44.985136	-45.000000	4398.864788	-4245.488400	26.579450	52.530857	1789.332420	-315.522004	12.724417	-13.416977	
